<svg
  width="584"
  height="120"
  viewBox="0 0 584 120"
  xmlns="http://www.w3.org/2000/svg"
>
  <g fill="none" fill-rule="evenodd">
    <path
      d="M358.116 91.422v15.395h8.273V81.409h3.301c4.424 0 8.022-3.593 8.022-8.01V59.256a4.133 4.133 0 0 0-4.136-4.13 4.133 4.133 0 0 0-4.136 4.13V73.15h-3.051V54.5a4.133 4.133 0 0 0-4.137-4.13 4.133 4.133 0 0 0-4.136 4.13v28.662h-3.217a.501.501 0 0 1-.5-.5v-8.136c0-2.281-1.853-4.13-4.137-4.13a4.134 4.134 0 0 0-4.137 4.13v8.135c0 4.83 3.936 8.761 8.774 8.761h3.217z"
      fill="#FFF"
    ></path>
    <path
      d="M358.116 91.422v15.395h8.273V81.409h3.301c4.424 0 8.022-3.593 8.022-8.01V59.256a4.133 4.133 0 0 0-4.136-4.13 4.133 4.133 0 0 0-4.136 4.13V73.15h-3.051V54.5a4.133 4.133 0 0 0-4.137-4.13 4.133 4.133 0 0 0-4.136 4.13v28.662h-3.217a.501.501 0 0 1-.5-.5v-8.136c0-2.281-1.853-4.13-4.137-4.13a4.134 4.134 0 0 0-4.137 4.13v8.135c0 4.83 3.936 8.761 8.774 8.761h3.217z"
      stroke="#E8E9EA"
      stroke-linecap="round"
      stroke-linejoin="round"
    ></path>
    <path d="M362.112 58.664v2.91" fill="#FFF"></path>
    <path
      d="M362.112 58.664v2.91"
      stroke="#E8E9EA"
      stroke-linecap="round"
      stroke-linejoin="round"
    ></path>
    <path d="M373.506 62.633v2.922" fill="#FFF"></path>
    <path
      d="M373.506 62.633v2.922"
      stroke="#E8E9EA"
      stroke-linecap="round"
      stroke-linejoin="round"
    ></path>
    <path d="M373.506 71.364v2.116" fill="#FFF"></path>
    <path
      d="M373.506 71.364v2.116"
      stroke="#E8E9EA"
      stroke-linecap="round"
      stroke-linejoin="round"
    ></path>
    <path fill="#FFF" d="M362.112 84.857h.265v2.91"></path>
    <path
      stroke="#E8E9EA"
      stroke-linecap="round"
      stroke-linejoin="round"
      d="M362.112 84.857h.265v2.91"
    ></path>
    <path d="M349.923 78.772v1.852" fill="#FFF"></path>
    <path
      d="M349.923 78.772v1.852"
      stroke="#E8E9EA"
      stroke-linecap="round"
      stroke-linejoin="round"
    ></path>
    <path
      d="M345.554 119.516s40.848-27.39 98.242-27.775c57.655-.387 103.524 26.301 107.749 27.707l-205.99.068z"
      fill="#FFF"
    ></path>
    <path
      d="M345.554 119.516s40.848-27.39 98.242-27.775c57.655-.387 103.524 26.301 107.749 27.707l-205.99.068z"
      stroke="#E8E9EA"
      stroke-linecap="round"
      stroke-linejoin="round"
    ></path>
    <path
      d="M35.988 119.428s40.846-28.156 98.241-28.156c38.957 0 76.383 22.688 128.695 22.688 38.146 0 59.722-8.466 102.81-8.466 51.667 0 91.297 13.483 92.916 14.022l-422.662-.088z"
      fill="#FFF"
    ></path>
    <path
      d="M35.988 119.428s40.846-28.156 98.241-28.156c38.957 0 76.383 22.688 128.695 22.688 38.146 0 59.722-8.466 102.81-8.466 51.667 0 91.297 13.483 92.916 14.022l-422.662-.088z"
      stroke="#E8E9EA"
      stroke-linecap="round"
      stroke-linejoin="round"
    ></path>
    <path d="M0 119.516h583.791" fill="#FFF"></path>
    <path
      d="M0 119.516h583.791"
      stroke="#E8E9EA"
      stroke-linecap="round"
      stroke-linejoin="round"
    ></path>
    <path
      d="M313.74 32.13c0 10.52-8.54 19.05-19.077 19.05-10.535 0-19.077-8.53-19.077-19.05 0-10.52 8.542-19.048 19.077-19.048 10.536 0 19.077 8.528 19.077 19.049"
      fill="#FFF"
    ></path>
    <path
      d="M313.74 32.13c0 10.52-8.54 19.05-19.077 19.05-10.535 0-19.077-8.53-19.077-19.05 0-10.52 8.542-19.048 19.077-19.048 10.536 0 19.077 8.528 19.077 19.049z"
      stroke="#E8E9EA"
      stroke-linecap="round"
      stroke-linejoin="round"
    ></path>
    <path d="M326.458 35.57h12.719" fill="#FFF"></path>
    <path
      d="M326.458 35.57h12.719"
      stroke="#E8E9EA"
      stroke-linecap="round"
      stroke-linejoin="round"
    ></path>
    <path d="M347.92 34.776h3.974" fill="#FFF"></path>
    <path
      d="M347.92 34.776h3.974"
      stroke="#E8E9EA"
      stroke-linecap="round"
      stroke-linejoin="round"
    ></path>
    <path d="M304.202 60.174h3.974" fill="#FFF"></path>
    <path
      d="M304.202 60.174h3.974"
      stroke="#E8E9EA"
      stroke-linecap="round"
      stroke-linejoin="round"
    ></path>
    <path d="M317.714 3.029h3.975" fill="#FFF"></path>
    <path
      d="M317.714 3.029h3.975"
      stroke="#E8E9EA"
      stroke-linecap="round"
      stroke-linejoin="round"
    ></path>
    <path d="M246.44 35.306h13.607" fill="#FFF"></path>
    <path
      d="M246.44 35.306h13.607"
      stroke="#E8E9EA"
      stroke-linecap="round"
      stroke-linejoin="round"
    ></path>
    <path d="M232.398 35.306h7.777" fill="#FFF"></path>
    <path
      d="M232.398 35.306h7.777"
      stroke="#E8E9EA"
      stroke-linecap="round"
      stroke-linejoin="round"
    ></path>
    <path d="M258.363 23.93h6.36" fill="#FFF"></path>
    <path
      d="M258.363 23.93h6.36"
      stroke="#E8E9EA"
      stroke-linecap="round"
      stroke-linejoin="round"
    ></path>
    <path d="M252.8 45.623h13.536" fill="#FFF"></path>
    <path
      d="M252.8 45.623h13.536"
      stroke="#E8E9EA"
      stroke-linecap="round"
      stroke-linejoin="round"
    ></path>
    <path d="M324.869 24.723h4.835" fill="#FFF"></path>
    <path
      d="M324.869 24.723h4.835"
      stroke="#E8E9EA"
      stroke-linecap="round"
      stroke-linejoin="round"
    ></path>
    <path d="M321.69 46.681h8.779" fill="#FFF"></path>
    <path
      d="M321.69 46.681h8.779"
      stroke="#E8E9EA"
      stroke-linecap="round"
      stroke-linejoin="round"
    ></path>
    <path
      d="M154.802 88.008v31.508h16.932V67.515h6.758c9.054 0 16.42-7.355 16.42-16.395V22.173c0-4.669-3.79-8.454-8.467-8.454-4.676 0-8.466 3.785-8.466 8.454v28.434h-6.245V12.44c0-4.669-3.79-8.453-8.466-8.453-4.676 0-8.466 3.784-8.466 8.453v58.662h-6.583c-.565 0-1.026-.459-1.026-1.025v-16.65c0-4.67-3.79-8.454-8.466-8.454-4.676 0-8.467 3.784-8.467 8.454v16.65c0 9.889 8.057 17.932 17.96 17.932h6.582z"
      fill="#FFF"
    ></path>
    <path
      d="M154.802 88.008v31.508h16.932V67.515h6.758c9.054 0 16.42-7.355 16.42-16.395V22.173c0-4.669-3.79-8.454-8.467-8.454-4.676 0-8.466 3.785-8.466 8.454v28.434h-6.245V12.44c0-4.669-3.79-8.453-8.466-8.453-4.676 0-8.466 3.784-8.466 8.453v58.662h-6.583c-.565 0-1.026-.459-1.026-1.025v-16.65c0-4.67-3.79-8.454-8.466-8.454-4.676 0-8.467 3.784-8.467 8.454v16.65c0 9.889 8.057 17.932 17.96 17.932h6.582z"
      stroke="#E8E9EA"
      stroke-linecap="round"
      stroke-linejoin="round"
    ></path>
    <path d="M160.467 16.597v8.121" fill="#FFF"></path>
    <path
      d="M160.467 16.597v8.121"
      stroke="#E8E9EA"
      stroke-linecap="round"
      stroke-linejoin="round"
    ></path>
    <path d="M160.467 75.51v8.12" fill="#FFF"></path>
    <path
      d="M160.467 75.51v8.12"
      stroke="#E8E9EA"
      stroke-linecap="round"
      stroke-linejoin="round"
    ></path>
    <path d="M160.467 55.401v4.947" fill="#FFF"></path>
    <path
      d="M160.467 55.401v4.947"
      stroke="#E8E9EA"
      stroke-linecap="round"
      stroke-linejoin="round"
    ></path>
    <path d="M166.474 27.886v4.585" fill="#FFF"></path>
    <path
      d="M166.474 27.886v4.585"
      stroke="#E8E9EA"
      stroke-linecap="round"
      stroke-linejoin="round"
    ></path>
    <path d="M189.084 38.821v4.586" fill="#FFF"></path>
    <path
      d="M189.084 38.821v4.586"
      stroke="#E8E9EA"
      stroke-linecap="round"
      stroke-linejoin="round"
    ></path>
    <path d="M135.56 55.49v4.585" fill="#FFF"></path>
    <path
      d="M135.56 55.49v4.585"
      stroke="#E8E9EA"
      stroke-linecap="round"
      stroke-linejoin="round"
    ></path>
    <path d="M166.827 63.383v3.44" fill="#FFF"></path>
    <path
      d="M166.827 63.383v3.44"
      stroke="#E8E9EA"
      stroke-linecap="round"
      stroke-linejoin="round"
    ></path>
    <path d="M183.432 27.577v3.44" fill="#FFF"></path>
    <path
      d="M183.432 27.577v3.44"
      stroke="#E8E9EA"
      stroke-linecap="round"
      stroke-linejoin="round"
    ></path>
    <path d="M161.174 35.646v2.146" fill="#FFF"></path>
    <path
      d="M161.174 35.646v2.146"
      stroke="#E8E9EA"
      stroke-linecap="round"
      stroke-linejoin="round"
    ></path>
    <path d="M183.432 47.435v2.146" fill="#FFF"></path>
    <path
      d="M183.432 47.435v2.146"
      stroke="#E8E9EA"
      stroke-linecap="round"
      stroke-linejoin="round"
    ></path>
    <path d="M142.184 65.514v2.146" fill="#FFF"></path>
    <path
      d="M142.184 65.514v2.146"
      stroke="#E8E9EA"
      stroke-linecap="round"
      stroke-linejoin="round"
    ></path>
    <path d="M166.827 43.407v6.008" fill="#FFF"></path>
    <path
      d="M166.827 43.407v6.008"
      stroke="#E8E9EA"
      stroke-linecap="round"
      stroke-linejoin="round"
    ></path>
    <path d="M166.827 83.975v6.008" fill="#FFF"></path>
    <path
      d="M166.827 83.975v6.008"
      stroke="#E8E9EA"
      stroke-linecap="round"
      stroke-linejoin="round"
    ></path>
    <path
      d="M216.702 84.24h4.533v35.276h11.658v-20.99h5.183c6.235 0 11.306-5.063 11.306-11.288v-8.642c0-3.215-2.61-5.821-5.83-5.821a5.825 5.825 0 0 0-5.829 5.82v8.29h-4.83V54.784c0-3.215-2.61-5.82-5.829-5.82a5.825 5.825 0 0 0-5.83 5.82v17.814h-4.532a.707.707 0 0 1-.706-.705V60.428c0-3.215-2.61-5.82-5.83-5.82a5.825 5.825 0 0 0-5.83 5.82v11.465c0 6.808 5.548 12.346 12.366 12.346"
      fill="#FFF"
    ></path>
    <path
      d="M216.702 84.24h4.533v35.276h11.658v-20.99h5.183c6.235 0 11.306-5.063 11.306-11.288v-8.642c0-3.215-2.61-5.821-5.83-5.821a5.825 5.825 0 0 0-5.829 5.82v8.29h-4.83V54.784c0-3.215-2.61-5.82-5.829-5.82a5.825 5.825 0 0 0-5.83 5.82v17.814h-4.532a.707.707 0 0 1-.706-.705V60.428c0-3.215-2.61-5.82-5.83-5.82a5.825 5.825 0 0 0-5.83 5.82v11.465c0 6.808 5.548 12.346 12.366 12.346z"
      stroke="#E8E9EA"
      stroke-linecap="round"
      stroke-linejoin="round"
    ></path>
    <path d="M225.916 57.87v3.44" fill="#FFF"></path>
    <path
      d="M225.916 57.87v3.44"
      stroke="#E8E9EA"
      stroke-linecap="round"
      stroke-linejoin="round"
    ></path>
    <path d="M228.565 71.364v2.645" fill="#FFF"></path>
    <path
      d="M228.565 71.364v2.645"
      stroke="#E8E9EA"
      stroke-linecap="round"
      stroke-linejoin="round"
    ></path>
    <path d="M226.446 82.476v2.44" fill="#FFF"></path>
    <path
      d="M226.446 82.476v2.44"
      stroke="#E8E9EA"
      stroke-linecap="round"
      stroke-linejoin="round"
    ></path>
    <path d="M208.163 63.162v3.175" fill="#FFF"></path>
    <path
      d="M208.163 63.162v3.175"
      stroke="#E8E9EA"
      stroke-linecap="round"
      stroke-linejoin="round"
    ></path>
    <path d="M211.872 68.983v3.174" fill="#FFF"></path>
    <path
      d="M211.872 68.983v3.174"
      stroke="#E8E9EA"
      stroke-linecap="round"
      stroke-linejoin="round"
    ></path>
    <path d="M242.344 79.036v3.714" fill="#FFF"></path>
    <path
      d="M242.344 79.036v3.714"
      stroke="#E8E9EA"
      stroke-linecap="round"
      stroke-linejoin="round"
    ></path>
    <path d="M245.524 86.18v1.323" fill="#FFF"></path>
    <path
      d="M245.524 86.18v1.323"
      stroke="#E8E9EA"
      stroke-linecap="round"
      stroke-linejoin="round"
    ></path>
    <path
      d="M410.072 86.356h4.532v33.16h11.66v-11.112h.497c7.941 0 14.401-6.45 14.401-14.379V57.077c0-3.215-2.61-5.82-5.83-5.82a5.825 5.825 0 0 0-5.829 5.82v36.948c0 1.51-1.23 2.738-2.742 2.738h-.498v-60.5c0-3.214-2.61-5.82-5.83-5.82a5.825 5.825 0 0 0-5.829 5.82v38.452h-4.532a.707.707 0 0 1-.707-.706V54.431c0-3.215-2.61-5.82-5.83-5.82a5.825 5.825 0 0 0-5.828 5.82v19.578c0 6.808 5.546 12.347 12.365 12.347"
      fill="#FFF"
    ></path>
    <path
      d="M410.072 86.356h4.532v33.16h11.66v-11.112h.497c7.941 0 14.401-6.45 14.401-14.379V57.077c0-3.215-2.61-5.82-5.83-5.82a5.825 5.825 0 0 0-5.829 5.82v36.948c0 1.51-1.23 2.738-2.742 2.738h-.498v-60.5c0-3.214-2.61-5.82-5.83-5.82a5.825 5.825 0 0 0-5.829 5.82v38.452h-4.532a.707.707 0 0 1-.707-.706V54.431c0-3.215-2.61-5.82-5.83-5.82a5.825 5.825 0 0 0-5.828 5.82v19.578c0 6.808 5.546 12.347 12.365 12.347z"
      stroke="#E8E9EA"
      stroke-linecap="round"
      stroke-linejoin="round"
    ></path>
    <path d="M401.328 58.135v2.91" fill="#FFF"></path>
    <path
      d="M401.328 58.135v2.91"
      stroke="#E8E9EA"
      stroke-linecap="round"
      stroke-linejoin="round"
    ></path>
    <path d="M405.037 66.601v3.175" fill="#FFF"></path>
    <path
      d="M405.037 66.601v3.175"
      stroke="#E8E9EA"
      stroke-linecap="round"
      stroke-linejoin="round"
    ></path>
    <path d="M405.037 54.696v1.852" fill="#FFF"></path>
    <path
      d="M405.037 54.696v1.852"
      stroke="#E8E9EA"
      stroke-linecap="round"
      stroke-linejoin="round"
    ></path>
    <path d="M402.123 74.01v3.968" fill="#FFF"></path>
    <path
      d="M402.123 74.01v3.968"
      stroke="#E8E9EA"
      stroke-linecap="round"
      stroke-linejoin="round"
    ></path>
    <path d="M418.286 42.79v3.713" fill="#FFF"></path>
    <path
      d="M418.286 42.79v3.713"
      stroke="#E8E9EA"
      stroke-linecap="round"
      stroke-linejoin="round"
    ></path>
    <path d="M422.79 36.175v1.588" fill="#FFF"></path>
    <path
      d="M422.79 36.175v1.588"
      stroke="#E8E9EA"
      stroke-linecap="round"
      stroke-linejoin="round"
    ></path>
    <path d="M422.525 54.431v7.677" fill="#FFF"></path>
    <path
      d="M422.525 54.431v7.677"
      stroke="#E8E9EA"
      stroke-linecap="round"
      stroke-linejoin="round"
    ></path>
    <path d="M422.525 74.803V80.1" fill="#FFF"></path>
    <path
      d="M422.525 74.803V80.1"
      stroke="#E8E9EA"
      stroke-linecap="round"
      stroke-linejoin="round"
    ></path>
    <path d="M418.286 64.75v1.587" fill="#FFF"></path>
    <path
      d="M418.286 64.75v1.587"
      stroke="#E8E9EA"
      stroke-linecap="round"
      stroke-linejoin="round"
    ></path>
    <path d="M434.184 63.956v3.44" fill="#FFF"></path>
    <path
      d="M434.184 63.956v3.44"
      stroke="#E8E9EA"
      stroke-linecap="round"
      stroke-linejoin="round"
    ></path>
    <path d="M437.364 74.01v3.174" fill="#FFF"></path>
    <path
      d="M437.364 74.01v3.174"
      stroke="#E8E9EA"
      stroke-linecap="round"
      stroke-linejoin="round"
    ></path>
    <path d="M437.364 90.016v2.381" fill="#FFF"></path>
    <path
      d="M437.364 90.016v2.381"
      stroke="#E8E9EA"
      stroke-linecap="round"
      stroke-linejoin="round"
    ></path>
    <path d="M434.184 80.888v1.323" fill="#FFF"></path>
    <path
      d="M434.184 80.888v1.323"
      stroke="#E8E9EA"
      stroke-linecap="round"
      stroke-linejoin="round"
    ></path>
    <path fill="#FFF" d="M437.364 58.664V58.4v1.322"></path>
    <path
      stroke="#E8E9EA"
      stroke-linecap="round"
      stroke-linejoin="round"
      d="M437.364 58.664V58.4v1.322"
    ></path>
  </g>
</svg>
